# xmcd CD database file
#
# Track frame offsets:
#	150
#	21275
#	43226
#	59598
#	82184
#	102973
#	125319
#	142409
#	166256
#	190488
#	207225
#	221616
#	238027
#	253264
#	271553
#	283072
#	299664
#	320249
#
# Disc length: 4494 seconds
#
# Revision: 0
# Processed by: cddbd v1.5.2PL0 Copyright (c) Steve Scherf et al.
# Submitted via: CDex 1.51
#
DISCID=2e118c12
DTITLE=manyºq¬P - jazz12
DYEAR=2010
DGENRE=Jazz
TTITLE0=the look of love
TTITLE1=the way we were
TTITLE2=without you 
TTITLE3=field of gold
TTITLE4=close to you
TTITLE5=killing me softly with his song
TTITLE6=we only just began
TTITLE7=what's all about
TTITLE8=vincent
TTITLE9=morning has broken
TTITLE10=Danny boy
TTITLE11=shadow of white pale
TTITLE12=house of the rising sun
TTITLE13=as time goes by
TTITLE14=confidence joys
TTITLE15=blackman ray
TTITLE16=while my guitar gentle weep
TTITLE17=carmen1
EXTD=YEAR: 2010
EXTT0=
EXTT1=
EXTT2=
EXTT3=
EXTT4=
EXTT5=
EXTT6=
EXTT7=
EXTT8=
EXTT9=
EXTT10=
EXTT11=
EXTT12=
EXTT13=
EXTT14=
EXTT15=
EXTT16=
EXTT17=
PLAYORDER=
